<svg width="940" height="720" viewBox="0 0 940 720" fill="none" xmlns="http://www.w3.org/2000/svg">
  <defs>
    <linearGradient id="bg" x1="60" y1="10" x2="880" y2="700" gradientUnits="userSpaceOnUse">
      <stop offset="0" stop-color="#eef9ff"/>
      <stop offset="0.42" stop-color="#f7f4ff"/>
      <stop offset="1" stop-color="#fff4fb"/>
    </linearGradient>
    <linearGradient id="title" x1="88" y1="86" x2="624" y2="262" gradientUnits="userSpaceOnUse">
      <stop stop-color="#1687ff"/>
      <stop offset="0.52" stop-color="#6d55ff"/>
      <stop offset="1" stop-color="#a23cff"/>
    </linearGradient>
    <linearGradient id="primary" x1="86" y1="312" x2="820" y2="604" gradientUnits="userSpaceOnUse">
      <stop stop-color="#246fff"/>
      <stop offset="0.6" stop-color="#7852ff"/>
      <stop offset="1" stop-color="#ff4fad"/>
    </linearGradient>
    <linearGradient id="gold" x1="0" y1="0" x2="1" y2="1">
      <stop stop-color="#ffe7a3"/>
      <stop offset="1" stop-color="#d6a84d"/>
    </linearGradient>
    <filter id="softShadow" x="-20%" y="-20%" width="140%" height="140%">
      <feDropShadow dx="0" dy="22" stdDeviation="22" flood-color="#6858bf" flood-opacity="0.18"/>
    </filter>
    <filter id="glow" x="-80%" y="-80%" width="260%" height="260%">
      <feGaussianBlur stdDeviation="18" result="blur"/>
      <feMerge>
        <feMergeNode in="blur"/>
        <feMergeNode in="SourceGraphic"/>
      </feMerge>
    </filter>
  </defs>

  <rect width="940" height="720" rx="48" fill="url(#bg)"/>
  <circle cx="138" cy="74" r="156" fill="#92d8ff" opacity="0.34"/>
  <circle cx="760" cy="110" r="190" fill="#ceb8ff" opacity="0.34"/>
  <circle cx="800" cy="610" r="176" fill="#ffc2df" opacity="0.26"/>

  <g opacity="0.42">
    <path d="M116 558C226 494 324 508 442 560C574 618 680 626 822 532" stroke="#7C4DFF" stroke-width="2"/>
    <path d="M154 412C278 342 382 358 488 420C616 494 716 490 824 414" stroke="#2196FF" stroke-width="2"/>
    <path d="M174 180C308 238 436 250 548 178C650 112 738 118 828 166" stroke="#FF4FAD" stroke-width="2"/>
  </g>

  <g transform="translate(72 68)">
    <rect x="0" y="0" width="104" height="38" rx="19" fill="#172033"/>
    <text x="52" y="25" text-anchor="middle" fill="white" font-family="Segoe UI, Microsoft YaHei, sans-serif" font-size="18" font-weight="800">OPC</text>
    <rect x="116" y="0" width="174" height="38" rx="19" fill="white" fill-opacity="0.72" stroke="#d8d9f7"/>
    <text x="203" y="25" text-anchor="middle" fill="#4d5f7a" font-family="Segoe UI, Microsoft YaHei, sans-serif" font-size="16" font-weight="700">Agent AI 训练营</text>
  </g>

  <text x="72" y="172" fill="url(#title)" font-family="Georgia, Times New Roman, Microsoft YaHei, serif" font-size="68" font-weight="800">OPC + Agent AI</text>
  <text x="72" y="246" fill="url(#title)" font-family="Georgia, Times New Roman, Microsoft YaHei, serif" font-size="76" font-weight="800">原生创业工场</text>
  <text x="76" y="292" fill="#34445b" font-family="Segoe UI, Microsoft YaHei, sans-serif" font-size="24" font-weight="650">用项目制训练营连接 AI 原生人才、企业命题、早期项目与投资孵化</text>

  <g transform="translate(620 82)" filter="url(#softShadow)">
    <rect x="0" y="0" width="248" height="184" rx="34" fill="white" fill-opacity="0.82" stroke="#d9d7fb"/>
    <circle cx="124" cy="78" r="44" fill="url(#primary)" opacity="0.92" filter="url(#glow)"/>
    <circle cx="124" cy="78" r="24" fill="white" fill-opacity="0.24"/>
    <path d="M124 34V122M80 78H168M94 48C112 66 137 91 154 108M154 48C136 66 111 91 94 108" stroke="white" stroke-width="4" stroke-linecap="round" opacity="0.86"/>
    <rect x="38" y="130" width="172" height="18" rx="9" fill="#eef1ff"/>
    <rect x="64" y="154" width="120" height="10" rx="5" fill="#d9ddfb"/>
    <circle cx="44" cy="50" r="11" fill="#7c4dff" opacity="0.32"/>
    <circle cx="204" cy="46" r="11" fill="#ff4fad" opacity="0.28"/>
    <circle cx="204" cy="118" r="11" fill="#2196ff" opacity="0.24"/>
  </g>

  <g transform="translate(72 340)">
    <text x="0" y="0" fill="#172033" font-family="Segoe UI, Microsoft YaHei, sans-serif" font-size="26" font-weight="800">项目统计</text>
    <g transform="translate(0 28)">
      <rect width="178" height="124" rx="24" fill="white" fill-opacity="0.82" stroke="#d8d9f7"/>
      <text x="26" y="58" fill="#172033" font-family="Cascadia Mono, Consolas, monospace" font-size="46" font-weight="800">221</text>
      <text x="26" y="91" fill="#65738a" font-family="Segoe UI, Microsoft YaHei, sans-serif" font-size="18" font-weight="650">兴趣社群人数</text>
    </g>
    <g transform="translate(196 28)">
      <rect width="178" height="124" rx="24" fill="white" fill-opacity="0.82" stroke="#d8d9f7"/>
      <text x="26" y="58" fill="#172033" font-family="Cascadia Mono, Consolas, monospace" font-size="46" font-weight="800">118</text>
      <text x="26" y="91" fill="#65738a" font-family="Segoe UI, Microsoft YaHei, sans-serif" font-size="18" font-weight="650">首期报名人数</text>
    </g>
    <g transform="translate(392 28)">
      <rect width="178" height="124" rx="24" fill="white" fill-opacity="0.82" stroke="#d8d9f7"/>
      <text x="26" y="58" fill="#172033" font-family="Cascadia Mono, Consolas, monospace" font-size="46" font-weight="800">20</text>
      <text x="26" y="91" fill="#65738a" font-family="Segoe UI, Microsoft YaHei, sans-serif" font-size="18" font-weight="650">首期筛选入营</text>
    </g>
    <g transform="translate(588 28)">
      <rect width="178" height="124" rx="24" fill="white" fill-opacity="0.82" stroke="#d8d9f7"/>
      <text x="26" y="58" fill="#172033" font-family="Cascadia Mono, Consolas, monospace" font-size="46" font-weight="800">20</text>
      <text x="26" y="91" fill="#65738a" font-family="Segoe UI, Microsoft YaHei, sans-serif" font-size="18" font-weight="650">第二期项目制成员</text>
    </g>
  </g>

  <g transform="translate(72 540)">
    <rect x="0" y="0" width="796" height="112" rx="30" fill="#172033"/>
    <rect x="22" y="24" width="150" height="64" rx="20" fill="url(#gold)"/>
    <text x="97" y="52" text-anchor="middle" fill="#172033" font-family="Segoe UI, Microsoft YaHei, sans-serif" font-size="20" font-weight="900">导师制</text>
    <text x="97" y="75" text-anchor="middle" fill="#172033" font-family="Segoe UI, Microsoft YaHei, sans-serif" font-size="16" font-weight="700">两周一次</text>
    <g transform="translate(206 22)">
      <circle cx="22" cy="34" r="22" fill="#2d6cff"/>
      <text x="22" y="42" text-anchor="middle" fill="white" font-family="Segoe UI, Microsoft YaHei, sans-serif" font-size="20" font-weight="900">1</text>
      <text x="58" y="30" fill="white" font-family="Segoe UI, Microsoft YaHei, sans-serif" font-size="20" font-weight="800">真实命题</text>
      <text x="58" y="58" fill="#b9c4dd" font-family="Segoe UI, Microsoft YaHei, sans-serif" font-size="16">企业场景与校园需求</text>
    </g>
    <g transform="translate(406 22)">
      <circle cx="22" cy="34" r="22" fill="#7c4dff"/>
      <text x="22" y="42" text-anchor="middle" fill="white" font-family="Segoe UI, Microsoft YaHei, sans-serif" font-size="20" font-weight="900">2</text>
      <text x="58" y="30" fill="white" font-family="Segoe UI, Microsoft YaHei, sans-serif" font-size="20" font-weight="800">跨专业组队</text>
      <text x="58" y="58" fill="#b9c4dd" font-family="Segoe UI, Microsoft YaHei, sans-serif" font-size="16">学生团队协作交付</text>
    </g>
    <g transform="translate(622 22)">
      <circle cx="22" cy="34" r="22" fill="#ff4fad"/>
      <text x="22" y="42" text-anchor="middle" fill="white" font-family="Segoe UI, Microsoft YaHei, sans-serif" font-size="20" font-weight="900">3</text>
      <text x="58" y="30" fill="white" font-family="Segoe UI, Microsoft YaHei, sans-serif" font-size="20" font-weight="800">Demo Day</text>
      <text x="58" y="58" fill="#b9c4dd" font-family="Segoe UI, Microsoft YaHei, sans-serif" font-size="16">项目路演与孵化对接</text>
    </g>
  </g>

  <g transform="translate(72 672)">
    <text x="0" y="0" fill="#65738a" font-family="Segoe UI, Microsoft YaHei, sans-serif" font-size="17" font-weight="650">从一个人、一个 Agent、一个项目开始，把 AI 能力训练成可验证的项目结果。</text>
  </g>
</svg>
