<svg xmlns="http://www.w3.org/2000/svg" viewBox="0 0 1200 800" role="img" aria-labelledby="title desc">
  <title id="title">AI outfit companion project poster</title>
  <desc id="desc">A calm project poster showing a wardrobe, weather, mood, and outfit recommendation cards.</desc>
  <defs>
    <linearGradient id="bg" x1="0" y1="0" x2="1" y2="1">
      <stop offset="0" stop-color="#f0fbff"/>
      <stop offset="0.5" stop-color="#fff7f1"/>
      <stop offset="1" stop-color="#f6f0ff"/>
    </linearGradient>
    <linearGradient id="accent" x1="0" y1="0" x2="1" y2="1">
      <stop offset="0" stop-color="#37b6ff"/>
      <stop offset="1" stop-color="#7c4dff"/>
    </linearGradient>
  </defs>
  <rect width="1200" height="800" rx="54" fill="url(#bg)"/>
  <rect x="118" y="120" width="964" height="560" rx="44" fill="#fff" opacity="0.84"/>
  <rect x="176" y="190" width="300" height="394" rx="36" fill="#f8fbff" stroke="#c9dcff"/>
  <path d="M258 260c28-46 92-46 120 0v258H258Z" fill="#2b3650"/>
  <path d="M270 300h96l54 60-46 44-28-32v146h-56V372l-28 32-46-44Z" fill="url(#accent)"/>
  <rect x="532" y="196" width="418" height="84" rx="28" fill="#eef8ff" stroke="#c7e8ff"/>
  <rect x="532" y="314" width="418" height="84" rx="28" fill="#fff6eb" stroke="#ffd9aa"/>
  <rect x="532" y="432" width="418" height="118" rx="28" fill="#f7f1ff" stroke="#dccbff"/>
  <circle cx="884" cy="238" r="28" fill="#ffd166"/>
  <path d="M846 356c38-48 78-48 116 0" fill="none" stroke="#ff8a5b" stroke-width="18" stroke-linecap="round"/>
  <text x="574" y="246" fill="#182033" font-family="Segoe UI, Microsoft YaHei, sans-serif" font-size="30" font-weight="800">天气：微凉有风</text>
  <text x="574" y="364" fill="#182033" font-family="Segoe UI, Microsoft YaHei, sans-serif" font-size="30" font-weight="800">心情：轻松通勤</text>
  <text x="574" y="488" fill="#182033" font-family="Segoe UI, Microsoft YaHei, sans-serif" font-size="30" font-weight="800">推荐：针织外套 + 深色长裤</text>
  <text x="118" y="88" fill="#182033" font-family="Segoe UI, Microsoft YaHei, sans-serif" font-size="42" font-weight="800">穿衣搭子 AI 推荐助手</text>
  <text x="118" y="724" fill="#536173" font-family="Segoe UI, Microsoft YaHei, sans-serif" font-size="25" font-weight="600">Wardrobe retrieval · Mood and weather based outfit matching</text>
</svg>
